<?xml version="1.0" encoding="utf-8"?>
<!-- Generator: Adobe Illustrator 21.1.0, SVG Export Plug-In . SVG Version: 6.00 Build 0)  -->
<svg version="1.1" id="Layer_1" xmlns="http://www.w3.org/2000/svg" xmlns:xlink="http://www.w3.org/1999/xlink" x="0px" y="0px"
	 viewBox="0 0 156.3 158.7" style="enable-background:new 0 0 156.3 158.7;" xml:space="preserve">
<style type="text/css">
	.st0{fill:#FFFFFF;}
	.st1{fill:#47B1C7;}
	.st2{fill:#02A5BB;}
	.st3{fill:#FECF0C;}
</style>
<g>
	<g>
		<path class="st0" d="M16.8-169.1v-32.2h17c1.5,0,2.9,0.2,4.1,0.7c1.2,0.5,2.1,1.1,2.9,1.8c0.8,0.8,1.4,1.6,1.7,2.6
			c0.4,1,0.6,2,0.6,3.1c0,1-0.1,2-0.4,2.8c-0.3,0.8-0.7,1.6-1.2,2.2c-0.5,0.6-1.1,1.1-1.8,1.5s-1.4,0.7-2.2,0.8
			c0.9,0.1,1.7,0.4,2.4,0.9s1.4,1,2,1.7s1,1.5,1.3,2.4s0.5,1.9,0.5,2.9c0,1.2-0.2,2.4-0.6,3.4c-0.4,1-1,2-1.8,2.8s-1.8,1.4-2.9,1.9
			c-1.2,0.5-2.5,0.7-4.1,0.7L16.8-169.1L16.8-169.1z M32.3-188.4c1.2,0,2.1-0.3,2.8-1c0.7-0.6,1-1.5,1-2.5s-0.3-1.9-1-2.5
			c-0.7-0.7-1.6-1-2.8-1h-8.6v7H32.3z M32.5-175c1.3,0,2.3-0.3,3.1-1c0.7-0.7,1.1-1.6,1.1-2.7c0-1-0.4-1.9-1.1-2.7
			c-0.7-0.7-1.7-1.1-3.1-1.1h-8.8v7.5H32.5z"/>
		<path class="st0" d="M51.2-169.1v-32.2h6.9v26.2h13.6v6H51.2z"/>
		<path class="st0" d="M92.8-168.5c-2.4,0-4.6-0.4-6.7-1.2s-3.8-2-5.3-3.5s-2.7-3.2-3.5-5.3c-0.8-2-1.3-4.3-1.3-6.7s0.4-4.6,1.3-6.7
			c0.8-2,2-3.8,3.5-5.3s3.3-2.6,5.3-3.5c2.1-0.8,4.3-1.2,6.7-1.2c2.4,0,4.7,0.4,6.8,1.2c2.1,0.8,3.8,2,5.3,3.5s2.7,3.2,3.5,5.3
			c0.8,2,1.3,4.3,1.3,6.7s-0.4,4.6-1.3,6.7c-0.8,2-2,3.8-3.5,5.3s-3.3,2.6-5.3,3.5C97.5-168.9,95.3-168.5,92.8-168.5z M92.8-174.6
			c1.5,0,2.8-0.3,4-0.8s2.2-1.3,3.1-2.2s1.5-2,2-3.3s0.7-2.7,0.7-4.2s-0.2-2.9-0.7-4.2s-1.1-2.4-2-3.4c-0.9-0.9-1.9-1.7-3.1-2.2
			s-2.6-0.8-4-0.8c-1.5,0-2.8,0.3-4,0.8s-2.2,1.3-3.1,2.2c-0.8,0.9-1.5,2.1-2,3.4c-0.5,1.3-0.7,2.7-0.7,4.2s0.2,2.9,0.7,4.2
			s1.1,2.4,2,3.3c0.8,0.9,1.9,1.7,3.1,2.2C90-174.9,91.4-174.6,92.8-174.6z"/>
		<path class="st0" d="M132.5-168.5c-2.4,0-4.7-0.4-6.8-1.2c-2.1-0.8-3.9-1.9-5.4-3.4s-2.7-3.2-3.6-5.3c-0.9-2-1.3-4.3-1.3-6.8
			s0.4-4.7,1.3-6.8c0.9-2,2.1-3.8,3.6-5.3s3.3-2.6,5.4-3.4c2.1-0.8,4.3-1.2,6.8-1.2c1.8,0,3.4,0.2,4.8,0.7c1.4,0.5,2.7,1,3.8,1.8
			c1.1,0.7,2,1.6,2.8,2.5s1.5,1.9,2.1,2.9l-5.9,2.9c-0.7-1.3-1.7-2.4-3-3.3c-1.4-0.9-2.9-1.4-4.5-1.4c-1.4,0-2.8,0.3-4,0.8
			s-2.3,1.3-3.2,2.2c-0.9,0.9-1.6,2.1-2.1,3.4c-0.5,1.3-0.7,2.7-0.7,4.2s0.2,2.9,0.7,4.2s1.2,2.4,2.1,3.4c0.9,0.9,2,1.7,3.2,2.2
			s2.6,0.8,4,0.8c1.7,0,3.2-0.4,4.5-1.3c1.4-0.9,2.4-2,3-3.4l5.9,2.8c-0.6,1-1.3,2-2.1,2.9s-1.8,1.8-2.8,2.5
			c-1.1,0.7-2.3,1.3-3.8,1.8C135.9-168.7,134.3-168.5,132.5-168.5z"/>
		<path class="st0" d="M174.7-169.1l-15.3-21v21h-6.9v-32.2h7l14.9,20.2v-20.2h6.9v32.2H174.7z"/>
		<path class="st0" d="M212.3-169.1l-2-5.5h-13.8l-2,5.5h-7.8l12.5-32.2h8.6l12.4,32.2H212.3z M203.4-194.4l-5,13.8h10L203.4-194.4z
			"/>
		<path class="st0" d="M229.8-169.1v-26.2h-9.4v-6H246v6h-9.4v26.2H229.8z"/>
		<path class="st0" d="M252.9-169.1v-32.2h6.9v32.2H252.9z"/>
		<path class="st0" d="M283.8-168.5c-2.4,0-4.6-0.4-6.7-1.2s-3.8-2-5.3-3.5s-2.7-3.2-3.5-5.3c-0.8-2-1.3-4.3-1.3-6.7
			s0.4-4.6,1.3-6.7c0.8-2,2-3.8,3.5-5.3s3.3-2.6,5.3-3.5c2.1-0.8,4.3-1.2,6.7-1.2c2.4,0,4.7,0.4,6.8,1.2c2.1,0.8,3.8,2,5.3,3.5
			s2.7,3.2,3.5,5.3c0.8,2,1.3,4.3,1.3,6.7s-0.4,4.6-1.3,6.7c-0.8,2-2,3.8-3.5,5.3s-3.3,2.6-5.3,3.5
			C288.5-168.9,286.2-168.5,283.8-168.5z M283.8-174.6c1.5,0,2.8-0.3,4-0.8s2.2-1.3,3.1-2.2s1.5-2,2-3.3s0.7-2.7,0.7-4.2
			s-0.2-2.9-0.7-4.2s-1.1-2.4-2-3.4c-0.9-0.9-1.9-1.7-3.1-2.2s-2.6-0.8-4-0.8c-1.5,0-2.8,0.3-4,0.8s-2.2,1.3-3.1,2.2
			c-0.8,0.9-1.5,2.1-2,3.4c-0.5,1.3-0.7,2.7-0.7,4.2s0.2,2.9,0.7,4.2s1.1,2.4,2,3.3c0.8,0.9,1.9,1.7,3.1,2.2
			C281-174.9,282.3-174.6,283.8-174.6z"/>
		<path class="st0" d="M330.1-169.1l-15.3-21v21h-6.9v-32.2h7l14.9,20.2v-20.2h6.9v32.2H330.1z"/>
	</g>
	<g>
		<polygon class="st1" points="-3.6,-212.6 -22.3,-190.4 -40.8,-212.6 -49.7,-212.6 -49.7,-157.7 -40.8,-157.7 -22.3,-179.8 
			-3.7,-157.7 5.2,-157.7 5.2,-212.6 		"/>
		<polygon class="st2" points="-3.7,-157.7 5.2,-157.7 -40.9,-212.6 -49.7,-212.6 		"/>
		<polygon class="st3" points="-40.8,-157.7 -49.7,-157.7 -3.6,-212.6 5.2,-212.6 		"/>
	</g>
</g>
<g>
	<g>
		<g>
			<polygon class="st1" points="97.8,9.8 78.8,32.5 59.7,9.8 50.7,9.8 50.7,66.1 59.7,66.1 78.8,43.3 97.7,66.1 106.9,66.1 
				106.9,9.8 			"/>
			<polygon class="st2" points="97.8,66.1 106.9,66.1 59.7,9.8 50.7,9.8 			"/>
			<polygon class="st3" points="59.7,66.1 50.7,66.1 97.8,9.8 106.9,9.8 			"/>
		</g>
		<g>
			<path class="st1" d="M46.8,135.6h-4.4v-1.6h10.9v1.6h-4.5v13h-1.9C46.8,148.6,46.8,135.6,46.8,135.6z"/>
			<path class="st1" d="M68.9,141.2c0,5-3.1,7.7-6.8,7.7c-3.9,0-6.6-3-6.6-7.5c0-4.6,2.9-7.7,6.8-7.7
				C66.4,133.7,68.9,136.8,68.9,141.2z M57.5,141.4c0,3.2,1.7,5.9,4.7,5.9s4.7-2.8,4.7-6c0-2.9-1.5-5.9-4.7-5.9
				C59.1,135.3,57.5,138.3,57.5,141.4z"/>
			<path class="st1" d="M73.5,134.1h1.8v7.1h0.1c0.4-0.6,0.8-1.1,1.1-1.5l4.5-5.5h2.4l-5.3,6.3l5.7,8.4h-2.3l-4.8-7.2l-1.4,1.6v5.6
				h-1.8V134.1z"/>
			<path class="st1" d="M95.1,141.8h-5.7v5.3h6.5v1.5h-8.2v-14.7h7.9v1.5h-6v4.6h5.7v1.6H95.1z"/>
			<path class="st1" d="M100.4,148.7v-14.7h2.1l4.7,7.4c1.1,1.7,1.9,3.3,2.7,4.7l0,0c-0.2-1.9-0.2-3.7-0.2-6v-6.2h1.7v14.7h-1.9
				l-4.6-7.5c-1-1.6-2.1-3.3-2.8-4.9h-0.1c0.1,1.8,0.1,3.6,0.1,6v6.3h-1.6V148.7z"/>
		</g>
	</g>
	<g>
		<path d="M8.2,122.8V79.4H15c4,0,6.9,0.3,8.7,0.8c2.6,0.7,4.7,2,6.2,3.8c1.5,1.9,2.3,4.1,2.3,6.6c0,1.7-0.3,3.2-1,4.5
			c-0.7,1.3-1.8,2.6-3.4,3.8c2.6,1.2,4.6,2.8,5.8,4.6c1.2,1.9,1.8,4.1,1.8,6.6c0,2.4-0.6,4.7-1.9,6.7c-1.3,2-2.9,3.5-4.9,4.5
			s-4.7,1.5-8.2,1.5H8.2z M16.5,87.3v9.1h1.8c2,0,3.5-0.4,4.5-1.3c1-0.8,1.5-2,1.5-3.5c0-1.4-0.5-2.4-1.4-3.2
			c-0.9-0.8-2.3-1.2-4.2-1.2H16.5z M16.5,103.8v11.1h2.1c3.4,0,5.7-0.4,6.9-1.3c1.2-0.9,1.8-2.1,1.8-3.8c0-1.9-0.7-3.3-2.1-4.4
			c-1.4-1.1-3.7-1.6-7-1.6H16.5z"/>
		<path d="M40.9,79.4h7.9L67.4,108V79.4h8.3v43.4h-7.9L49.1,94.3v28.5h-8.3V79.4z"/>
		<path d="M81.9,79.4h24v8.1H98v35.2h-8.4V87.6h-7.7V79.4z"/>
		<path d="M113.3,79.4h7.9l18.6,28.6V79.4h8.3v43.4h-7.9l-18.5-28.5v28.5h-8.3V79.4z"/>
	</g>
</g>
</svg>
